/* XPM */
static char * audio_speakers_symbolic_20_xpm[] = {
"16 16 6 1",
" 	c None",
".	c #0199FF",
"+	c #0099FE",
"@	c #009AFF",
"#	c #0099FF",
"$	c #0098FF",
"           .+   ",
"          @##   ",
"      #  ###    ",
"     .# +#$     ",
"    ### ##      ",
" #@####         ",
" ######         ",
" ###### @@@@@@# ",
" ###### ######. ",
" ######         ",
" ######         ",
"    ### ##      ",
"     ## +#$     ",
"      #  ###    ",
"          @##   ",
"           ##   "};
