/* XPM */
static char * cpu_20_xpm[] = {
"20 20 2 1",
" 	c None",
".	c #0099FF",
"                    ",
"                    ",
"                    ",
"                    ",
"  ................  ",
"  ..            ..  ",
"  ..            ..  ",
"  ..            ..  ",
"  ..            ..  ",
"  ..            ..  ",
"  ..            ..  ",
"  ..            ..  ",
"  ................  ",
"   ..............   ",
"         ..         ",
"      ........      ",
"                    ",
"                    ",
"                    ",
"                    "};
